<svg width="48" height="48" viewBox="0 0 48 48" fill="none" xmlns="http://www.w3.org/2000/svg">
<path d="M19.2 9.6H28.8C28.8 8.32696 28.2943 7.10606 27.3941 6.20589C26.4939 5.30571 25.273 4.8 24 4.8C22.727 4.8 21.5061 5.30571 20.6059 6.20589C19.7057 7.10606 19.2 8.32696 19.2 9.6ZM14.4 9.6C14.4 7.05392 15.4114 4.61212 17.2118 2.81178C19.0121 1.01143 21.4539 0 24 0C26.5461 0 28.9879 1.01143 30.7882 2.81178C32.5886 4.61212 33.6 7.05392 33.6 9.6H45.6C46.2365 9.6 46.847 9.85286 47.2971 10.3029C47.7471 10.753 48 11.3635 48 12C48 12.6365 47.7471 13.247 47.2971 13.6971C46.847 14.1471 46.2365 14.4 45.6 14.4H43.4832L41.3568 39.216C41.1524 41.6123 40.0559 43.8446 38.2844 45.4712C36.5129 47.0978 34.1954 48.0003 31.7904 48H16.2096C13.8046 48.0003 11.4871 47.0978 9.71556 45.4712C7.94406 43.8446 6.84763 41.6123 6.6432 39.216L4.5168 14.4H2.4C1.76348 14.4 1.15303 14.1471 0.702944 13.6971C0.252856 13.247 0 12.6365 0 12C0 11.3635 0.252856 10.753 0.702944 10.3029C1.15303 9.85286 1.76348 9.6 2.4 9.6H14.4ZM31.2 24C31.2 23.3635 30.9471 22.753 30.4971 22.3029C30.047 21.8529 29.4365 21.6 28.8 21.6C28.1635 21.6 27.553 21.8529 27.1029 22.3029C26.6529 22.753 26.4 23.3635 26.4 24V33.6C26.4 34.2365 26.6529 34.847 27.1029 35.2971C27.553 35.7471 28.1635 36 28.8 36C29.4365 36 30.047 35.7471 30.4971 35.2971C30.9471 34.847 31.2 34.2365 31.2 33.6V24ZM19.2 21.6C18.5635 21.6 17.953 21.8529 17.5029 22.3029C17.0529 22.753 16.8 23.3635 16.8 24V33.6C16.8 34.2365 17.0529 34.847 17.5029 35.2971C17.953 35.7471 18.5635 36 19.2 36C19.8365 36 20.447 35.7471 20.8971 35.2971C21.3471 34.847 21.6 34.2365 21.6 33.6V24C21.6 23.3635 21.3471 22.753 20.8971 22.3029C20.447 21.8529 19.8365 21.6 19.2 21.6Z" fill="white"/>
</svg>
