<svg width="48" height="30" viewBox="0 0 48 30" fill="none" xmlns="http://www.w3.org/2000/svg">
<path d="M20.8859 28.6326L1.03222 6.64886C-1.31081 4.0623 0.593421 1.47456e-06 4.14937 1.47456e-06H43.8568C44.6526 -0.00065951 45.4318 0.220912 46.101 0.638182C46.7701 1.05545 47.301 1.65073 47.6299 2.35274C47.9588 3.05474 48.0719 3.83372 47.9555 4.59637C47.8392 5.35902 47.4984 6.07302 46.974 6.65287L27.1202 28.6286C26.7317 29.0593 26.2525 29.4046 25.7149 29.6411C25.1772 29.8776 24.5936 30 24.0031 30C23.4126 30 22.8289 29.8776 22.2913 29.6411C21.7537 29.4046 21.2745 29.0593 20.8859 28.6286V28.6326Z" fill="white"/>
</svg>
