<svg width="12" height="48" viewBox="0 0 12 48" fill="none" xmlns="http://www.w3.org/2000/svg">
<path d="M4.64291e-05 42.554V41.2409C0.0285725 41.1347 0.0761159 41.0381 0.0951332 40.9319C0.513515 38.1702 2.77658 35.988 5.42945 35.8045C8.39616 35.5921 10.9065 37.3108 11.7242 40.1111C11.8288 40.478 11.9049 40.8642 12 41.2408V42.554C11.9714 42.6409 11.9239 42.7181 11.9144 42.8147C11.5055 45.3639 9.69885 47.3048 7.2266 47.8552C7.03642 47.8938 6.84625 47.9517 6.65607 48H5.36289C5.27732 47.971 5.19174 47.9228 5.10616 47.9131C2.6339 47.5075 0.751233 45.7212 0.180664 43.2396C0.123612 42.9982 0.0570521 42.7761 0 42.554H4.64291e-05ZM12 5.4363L12 6.74962C11.9714 6.85584 11.9239 6.9524 11.9144 7.05862C11.4865 9.83956 9.21391 12.0122 6.53246 12.186C3.57526 12.3791 1.07448 10.641 0.266242 7.8311C0.161646 7.47378 0.0855781 7.1069 0 6.74957V5.43635C0.028526 5.34945 0.0760694 5.2722 0.0950868 5.1853C0.551503 2.67472 1.98731 1.0332 4.3835 0.251057C4.69729 0.144841 5.03009 0.0869044 5.35338 0H6.64657C6.73214 0.0289681 6.81772 0.0772484 6.9033 0.0869045C9.38507 0.502114 11.2583 2.27883 11.8288 4.76043C11.8859 4.99217 11.9429 5.21426 12 5.4363ZM12 23.3387V24.6519C11.9714 24.7581 11.9239 24.8547 11.9049 24.9609C11.477 27.7322 9.11882 29.9627 6.45639 30.0786C3.46116 30.2138 0.922342 28.3791 0.209191 25.5499C0.133121 25.2506 0.0665607 24.9512 0 24.6519V23.3387C0.028526 23.2324 0.0760694 23.1359 0.0950868 23.0297C0.513469 20.2584 2.88113 18.0278 5.54356 17.9023C8.53879 17.7575 11.0776 19.6018 11.7908 22.431C11.8668 22.74 11.9334 23.0393 12 23.3387V23.3387Z" fill="white"/>
</svg>
